<svg xmlns="http://www.w3.org/2000/svg" viewBox="0 0 64 64">
  <rect width="64" height="64" rx="14" fill="#171923"/>
  <path d="M12 25v-7a6 6 0 0 1 6-6h9M43 12h3a6 6 0 0 1 6 6v7M52 39v7a6 6 0 0 1-6 6h-9M21 52h-3a6 6 0 0 1-6-6v-7" fill="none" stroke="#e1c385" stroke-width="4" stroke-linecap="round"/>
  <rect x="18" y="24" width="28" height="16" rx="2" fill="#e1c385"/>
  <path d="M24 37l5-5 4 3 5-6 4 8" fill="none" stroke="#24232b" stroke-width="2.5" stroke-linecap="round" stroke-linejoin="round"/>
</svg>
